Coordinates
version=1
nRows=38
nColumns=12
inDegrees=yes

Units are S.I. units (second, meters, Newtons, ...)
Angles are in degrees

endheader
time	SC_y	SC_z	SC_x	AC_y	AC_z	AC_x	GH_y	GH_z	GH_yy	EL_x	PS_y
       0.0              -16.23          20.33          7.809          55.67         -12.61         -17.83         -28.29          57.44         -160.7          23.26          153.1
   0.02815              -16.23          20.33          7.808          55.67         -12.61         -17.82         -28.27          57.44         -160.7          23.26          153.1
    0.0563              -16.23          20.33          7.807          55.67         -12.61         -17.82         -28.24          57.44         -160.7          23.27          153.0
   0.08445              -16.23          20.33          7.807          55.67          -12.6         -17.82         -28.21          57.44         -160.7          23.27          153.0
    0.1126              -16.23          20.33          7.806          55.67          -12.6         -17.81         -28.18          57.44         -160.7          23.27          153.0
    0.1407              -16.23          20.33          7.805          55.66          -12.6         -17.81         -28.14          57.44         -160.7          23.27          153.0
    0.1689              -16.23          20.33          7.804          55.66          -12.6          -17.8         -28.11          57.44         -160.7          23.27          153.0
     0.197              -16.23          20.33          7.803          55.66          -12.6         -17.79         -28.07          57.44         -160.7          23.27          153.0
    0.2252              -16.23          20.32          7.802          55.66         -12.59         -17.79         -28.03          57.44         -160.7          23.28          152.9
    0.2533              -16.23          20.32          7.801          55.66         -12.59         -17.78         -27.98          57.44         -160.7          23.28          152.9
    0.2815              -16.23          20.32            7.8          55.66         -12.59         -17.77         -27.93          57.44         -160.7          23.28          152.9
    0.3096              -16.23          20.32          7.799          55.66         -12.58         -17.77         -27.88          57.44         -160.6          23.28          152.9
    0.3378              -16.23          20.32          7.797          55.65         -12.58         -17.76         -27.83          57.44         -160.6          23.28          152.8
    0.3659              -16.23          20.32          7.796          55.65         -12.58         -17.75         -27.77          57.44         -160.6          23.29          152.8
    0.3941              -16.23          20.32          7.794          55.65         -12.57         -17.74          -27.7          57.44         -160.6          23.29          152.8
    0.4222              -16.23          20.32          7.793          55.65         -12.57         -17.73         -27.63          57.44         -160.6          23.29          152.7
    0.4504              -16.23          20.32          7.791          55.65         -12.56         -17.72         -27.56          57.44         -160.6           23.3          152.7
    0.4785              -16.23          20.32          7.789          55.64         -12.56          -17.7         -27.47          57.44         -160.6           23.3          152.7
    0.5067              -16.23          20.31          7.787          55.64         -12.55         -17.69         -27.38          57.44         -160.6          23.31          152.6
    0.5348              -16.23          20.31          7.784          55.64         -12.54         -17.67         -27.28          57.44         -160.5          23.31          152.6
     0.563              -16.23          20.31          7.782          55.64         -12.54         -17.66         -27.17          57.45         -160.5          23.31          152.5
    0.5911              -16.23          20.31          7.779          55.63         -12.53         -17.64         -27.05          57.45         -160.5          23.32          152.4
    0.6193              -16.23          20.31          7.776          55.63         -12.52         -17.62         -26.92          57.45         -160.5          23.33          152.4
    0.6474              -16.23          20.31          7.772          55.62         -12.51          -17.6         -26.77          57.45         -160.4          23.33          152.3
    0.6756              -16.23           20.3          7.768          55.62          -12.5         -17.57         -26.61          57.45         -160.4          23.34          152.2
    0.7037              -16.23           20.3          7.764          55.61         -12.49         -17.54         -26.43          57.45         -160.4          23.35          152.1
    0.7319              -16.24           20.3          7.759          55.61         -12.48         -17.51         -26.22          57.45         -160.3          23.36          152.0
      0.76              -16.24          20.29          7.753           55.6         -12.46         -17.48         -25.99          57.45         -160.3          23.37          151.9
    0.7882              -16.24          20.29          7.747          55.59         -12.44         -17.44         -25.73          57.45         -160.2          23.38          151.8
    0.8163              -16.24          20.28           7.74          55.58         -12.43         -17.39         -25.44          57.45         -160.2          23.39          151.6
    0.8445              -16.24          20.28          7.732          55.57          -12.4         -17.34          -25.1          57.45         -160.1          23.41          151.4
    0.8726              -16.24          20.27          7.722          55.56         -12.38         -17.28         -24.71          57.45         -160.0          23.43          151.2
    0.9008              -16.24          20.27          7.712          55.55         -12.35         -17.21         -24.26          57.45         -160.0          23.45          151.0
    0.9289              -16.25          20.26          7.699          55.53         -12.32         -17.13         -23.75          57.45         -159.9          23.47          150.7
    0.9571              -16.25          20.25          7.685          55.51         -12.28         -17.04         -23.14          57.45         -159.8           23.5          150.4
    0.9852              -16.25          20.24          7.667          55.49         -12.23         -16.93         -22.42          57.45         -159.6          23.53          150.1
     1.013              -16.25          20.22          7.647          55.47         -12.18          -16.8         -21.57          57.46         -159.5          23.57          149.6
     1.042              -16.26          20.21          7.622          55.44         -12.11         -16.64         -20.55          57.46         -159.3          23.62          149.1
